<?xml version="1.0" encoding="UTF-8" standalone="no"?><!DOCTYPE svg PUBLIC "-//W3C//DTD SVG 1.1//EN" "http://www.w3.org/Graphics/SVG/1.1/DTD/svg11.dtd"><svg width="100%" height="100%" viewBox="0 0 4167 2917" version="1.1" xmlns="http://www.w3.org/2000/svg" xmlns:xlink="http://www.w3.org/1999/xlink" xml:space="preserve" xmlns:serif="http://www.serif.com/" style="fill-rule:evenodd;clip-rule:evenodd;stroke-linejoin:round;stroke-miterlimit:2;"><g><circle cx="1403.57" cy="481.008" r="196.542"/><path d="M1184.29,1366.24l19.491,0l0,389.835c0,53.619 43.857,97.459 97.459,97.459l204.663,-0c53.603,-0 97.459,-43.84 97.459,-97.459l0,-22.724c-17.867,-34.127 -29.237,-73.094 -29.237,-113.702l-0,-510.034c-0,-99.083 60.099,-185.172 146.188,-222.531l-0,-38.983c-0,-53.603 -43.857,-97.459 -97.459,-97.459l-438.564,0c-53.603,0 -97.459,43.856 -97.459,97.459l-0,420.697c-0,53.602 42.232,97.442 97.459,97.442Z" style="fill-rule:nonzero;"/><circle cx="2764.74" cy="481.008" r="196.542"/><path d="M2446.36,846.478l-0,38.984c86.105,37.359 146.188,123.448 146.188,222.531l0,508.409c0,40.608 -9.746,79.592 -29.221,113.702l-0,22.741c-0,53.602 43.84,97.458 97.458,97.458l204.664,0c53.602,0 97.458,-43.856 97.458,-97.458l0,-389.835l19.476,-0c53.619,-0 97.459,-43.857 97.459,-97.459l-0,-419.073c-0,-53.602 -43.84,-97.458 -97.459,-97.458l-438.564,-0c-53.586,-0 -97.459,43.84 -97.459,97.458Z" style="fill-rule:nonzero;"/><path d="M1721.93,1109.6l0,510.034c0,53.602 43.856,97.458 97.459,97.458l37.359,0l-0,459.681c-0,53.602 43.856,97.459 97.459,97.459l261.514,-0c53.602,-0 97.459,-43.857 97.459,-97.459l-0,-461.305l37.359,0c53.602,0 97.459,-43.84 97.459,-97.459l-0,-508.393c-0,-53.602 -43.857,-97.459 -97.459,-97.459l-531.15,0c-55.227,-0.016 -97.459,43.857 -97.459,97.443Z" style="fill-rule:nonzero;"/><circle cx="2084.15" cy="705.163" r="225.779"/></g><path d="M1075.83,2367.16c16.667,-0 30.417,5.833 42.084,17.5c11.666,11.667 17.5,25.833 17.5,42.083l-0,206.667l-211.25,-0c-16.667,-0 -30.417,-5.833 -42.084,-17.5c-11.666,-11.667 -17.5,-25.833 -17.5,-42.083l0,-98.334l221.25,0l0,-48.75c0,-2.916 -0.833,-5 -2.916,-7.083c-2.084,-2.083 -4.167,-2.917 -7.084,-2.917l-211.25,0l0,-49.583l211.25,-0Zm10,216.667l0,-58.75l-171.666,-0l-0,48.75c-0,2.916 0.833,5 2.916,7.083c2.084,2.083 4.167,2.917 7.084,2.917l161.666,-0Zm477.917,-216.667l52.917,-0l-100,266.25l-40.417,-0l-89.583,-197.917l-84.584,197.917l-0.833,-0.417l0.417,0.417l-40,-0l-104.584,-266.25l52.5,-0l72.084,176.667l76.666,-176.667l56.667,-0l81.25,176.667l67.5,-176.667Zm280,-0c16.667,-0 30.417,5.833 42.083,17.5c11.667,11.667 17.5,25.833 17.5,42.083l0,98.334l-221.25,-0l0,48.75c0,2.916 0.834,5 2.917,7.083c2.083,2.083 4.167,2.917 7.083,2.917l211.25,-0l0,49.583l-211.25,-0c-16.666,-0 -30.416,-5.833 -42.083,-17.5c-11.667,-11.667 -17.5,-25.833 -17.5,-42.083l0,-147.084c0,-16.666 5.833,-30.416 17.5,-42.083c11.667,-11.667 25.833,-17.5 42.083,-17.5l151.667,-0Zm-161.667,108.333l171.667,0l0,-48.75c0,-2.916 -0.833,-5 -2.917,-7.083c-2.083,-2.083 -4.166,-2.917 -7.083,-2.917l-151.667,0c-2.916,0 -5,0.834 -7.083,2.917c-2.083,2.083 -2.917,4.167 -2.917,7.083l0,48.75Zm537.5,-48.333l0,10l-49.583,-0l0,-10c0,-2.917 -0.833,-5 -2.917,-7.083c-2.083,-2.084 -4.166,-2.917 -7.083,-2.917l-151.667,-0c-2.916,-0 -5,0.833 -7.083,2.917c-2.083,2.083 -2.917,4.166 -2.917,7.083l0,38.75c0,2.917 0.834,5 2.917,7.083c2.083,2.084 4.167,2.917 7.083,2.917l151.667,-0c16.667,-0 30.417,5.833 42.083,17.5c11.667,11.667 17.5,25.833 17.5,42.083l0,38.75c0,16.667 -5.833,30.417 -17.5,42.084c-11.666,11.666 -25.833,17.5 -42.083,17.5l-151.667,-0c-16.666,-0 -30.416,-5.834 -42.083,-17.5c-11.667,-11.667 -17.5,-25.834 -17.5,-42.084l0,-10l49.583,0l0,10c0,2.917 0.834,5 2.917,7.084c2.083,2.083 4.167,2.916 7.083,2.916l151.667,0c2.917,0 5,-0.833 7.083,-2.916c2.084,-2.084 2.917,-4.167 2.917,-7.084l0,-38.75c0,-2.916 -0.833,-5 -2.917,-7.083c-2.083,-2.083 -4.166,-2.917 -7.083,-2.917l-151.667,0c-16.666,0 -30.416,-5.833 -42.083,-17.5c-11.667,-11.666 -17.5,-25.833 -17.5,-42.083l0,-38.75c0,-16.667 5.833,-30.417 17.5,-42.083c11.667,-11.667 25.833,-17.5 42.083,-17.5l151.667,-0c16.667,-0 30.417,5.833 42.083,17.5c11.667,11.25 17.5,25.416 17.5,42.083Zm105,-60l151.667,-0c16.667,-0 30.417,5.833 42.083,17.5c11.667,11.667 17.5,25.833 17.5,42.083l0,147.084c0,16.666 -5.833,30.416 -17.5,42.083c-11.666,11.667 -25.833,17.5 -42.083,17.5l-151.667,-0c-16.666,-0 -30.416,-5.833 -42.083,-17.5c-11.667,-11.667 -17.5,-25.833 -17.5,-42.083l0,-147.084c0,-16.666 5.833,-30.416 17.5,-42.083c11.667,-11.667 25.833,-17.5 42.083,-17.5Zm151.667,49.583l-151.667,0c-2.916,0 -5,0.834 -7.083,2.917c-2.083,2.083 -2.917,4.167 -2.917,7.083l0,147.084c0,2.916 0.834,5 2.917,7.083c2.083,2.083 4.167,2.917 7.083,2.917l151.667,-0c2.917,-0 5,-0.834 7.083,-2.917c2.084,-2.083 2.917,-4.167 2.917,-7.083l0,-147.084c0,-2.916 -0.833,-5 -2.917,-7.083c-2.083,-1.667 -4.166,-2.917 -7.083,-2.917Zm447.917,-49.583c16.666,-0 30.416,5.833 42.083,17.5c11.667,11.667 17.5,25.833 17.5,42.083l0,206.667l-49.167,-0l0,-206.667c0,-2.916 -0.833,-5 -2.916,-7.083c-2.084,-2.083 -4.584,-2.917 -7.5,-2.917l-105,0c-2.917,0 -5,0.834 -7.084,2.917c-2.083,2.083 -2.916,4.167 -2.916,7.083l-0,206.667l-49.584,-0l0,-206.667c0,-2.916 -0.833,-5 -2.916,-7.083c-2.084,-2.083 -4.167,-2.917 -7.084,-2.917l-105.416,0c-2.917,0 -5,0.834 -7.084,2.917c-2.083,2.083 -2.916,4.167 -2.916,7.083l-0,206.667l-49.584,-0l0,-266.25l339.584,-0Zm318.75,-0c16.666,-0 30.416,5.833 42.083,17.5c11.667,11.667 17.5,25.833 17.5,42.083l0,98.334l-221.25,-0l0,48.75c0,2.916 0.833,5 2.917,7.083c2.083,2.083 4.166,2.917 7.083,2.917l211.25,-0l0,49.583l-211.25,-0c-16.667,-0 -30.417,-5.833 -42.083,-17.5c-11.667,-11.667 -17.5,-25.833 -17.5,-42.083l-0,-147.084c-0,-16.666 5.833,-30.416 17.5,-42.083c11.666,-11.667 25.833,-17.5 42.083,-17.5l151.667,-0Zm-161.667,108.333l171.667,0l-0,-48.75c-0,-2.916 -0.834,-5 -2.917,-7.083c-2.083,-2.083 -4.167,-2.917 -7.083,-2.917l-151.667,0c-2.917,0 -5,0.834 -7.083,2.917c-2.084,2.083 -2.917,4.167 -2.917,7.083l0,48.75Z" style="fill:#494368;fill-rule:nonzero;"/><path d="M3577.39,1337.24l-497.554,-363.544l-0,157.328l262.079,206.216l-2516.66,-0l261.569,-206.216l-0,-157.328l-497.043,363.544l-0.511,-0l-0,377.917c-0,170.833 201.762,310 449.495,310l472.481,-0c247.734,-0 449.496,-139.167 449.496,-310l-0,-248.334l245.179,0l-0,248.334c-0,170.833 201.762,310 449.495,310l472.481,-0c247.734,-0 449.496,-139.167 449.496,-310l-0,-377.917Z" style="fill:#fc60a8;fill-rule:nonzero;"/></svg>